<svg width="201" height="201" xmlns="http://www.w3.org/2000/svg" xmlns:xlink="http://www.w3.org/1999/xlink" overflow="hidden"><defs><linearGradient x1="687.699" y1="307.699" x2="924.301" y2="444.301" gradientUnits="userSpaceOnUse" spreadMethod="reflect" id="fill0"><stop offset="0" stop-color="#0082B0"/><stop offset="0.07" stop-color="#0082B0"/><stop offset="0.46" stop-color="#00B0F0"/><stop offset="1" stop-color="#8D07BD"/></linearGradient></defs><g transform="translate(-705 -276)"><path d="M783.786 354.991 807.433 354.991 783.656 421.828 760.204 421.828ZM760.204 330.172 825.804 330.172C849.385 330.172 861.177 337.685 861.177 352.711 861.177 365.436 848.908 376.554 824.37 386.065L836.096 411.406 861.958 411.406C861.785 414.663 860.265 417.268 857.398 419.223 854.792 420.96 851.774 421.828 848.343 421.828L823.263 421.828C819.832 421.828 817.227 420.916 815.446 419.092 814.273 417.92 812.797 415.358 811.016 411.406L798.183 383.003C799.79 382.699 803.503 381.461 809.322 379.29 814.968 377.205 818.508 375.772 819.941 374.99 828.583 370.517 832.904 364.915 832.904 358.183 832.904 350.453 827.432 346.588 816.488 346.588L750.042 346.588ZM806 296.5C762.093 296.5 726.5 332.093 726.5 376 726.5 419.907 762.093 455.5 806 455.5 849.907 455.5 885.5 419.907 885.5 376 885.5 332.093 849.907 296.5 806 296.5ZM806 276C861.229 276 906 320.771 906 376 906 431.229 861.229 476 806 476 750.771 476 706 431.229 706 376 706 320.771 750.771 276 806 276Z" fill="url(#fill0)" fill-rule="evenodd"/></g></svg>